PathFileType	4	(X/Y/Z)	C:/Users/opensim2020/Desktop/walking_exp_matlab/subject02_walking09_straight_02.trc	
DataRate	CameraRate	NumFrames	NumMarkers	Units	OrigDataRate	OrigDataStartFrame	OrigNumFrames	
100.00	100.00	5	42	mm	100.00	1595	436	
Frame#	Time	LFHD			RFHD			LBHD			RBHD			C7			T10			CLAV			STRN			RBAK			LSHO			LUPA			LELB			LFRM			LWRA			LWRB			LFIN			RSHO			RUPA			RELB			RFRM			RWRA			RWRB			RFIN			LASI			RASI			LPSI			RPSI			LTHI			LKNE			LTIB			LANK			LHEE			LTOE			RTHI			RKNE			RTIB			RANK			RHEE			RTOE			*39			*40			*41			
		X1	Y1	Z1	X2	Y2	Z2	X3	Y3	Z3	X4	Y4	Z4	X5	Y5	Z5	X6	Y6	Z6	X7	Y7	Z7	X8	Y8	Z8	X9	Y9	Z9	X10	Y10	Z10	X11	Y11	Z11	X12	Y12	Z12	X13	Y13	Z13	X14	Y14	Z14	X15	Y15	Z15	X16	Y16	Z16	X17	Y17	Z17	X18	Y18	Z18	X19	Y19	Z19	X20	Y20	Z20	X21	Y21	Z21	X22	Y22	Z22	X23	Y23	Z23	X24	Y24	Z24	X25	Y25	Z25	X26	Y26	Z26	X27	Y27	Z27	X28	Y28	Z28	X29	Y29	Z29	X30	Y30	Z30	X31	Y31	Z31	X32	Y32	Z32	X33	Y33	Z33	X34	Y34	Z34	X35	Y35	Z35	X36	Y36	Z36	X37	Y37	Z37	X38	Y38	Z38	X39	Y39	Z39	X40	Y40	Z40	X41	Y41	Z41	X42	Y42	Z42	

382	3.810	1543.40393	-775.15131	1709.33923	1405.03992	-740.81226	1684.07703	1583.80322	-636.21777	1666.67993	1448.10486	-591.62842	1643.19580	1524.21826	-542.29303	1523.72485	1521.24500	-480.74542	1242.82361	1525.09888	-676.47443	1444.14099	1516.83936	-722.31219	1272.61084	1467.46204	-472.57495	1344.92969	1696.02917	-623.19672	1497.08032	1793.94946	-655.96857	1307.94470	1819.05066	-704.08154	1174.71606	1822.16516	-778.80890	1063.03003	1771.29041	-879.86304	981.92102	1813.07104	-847.15485	961.64825	1811.06262	-899.10663	920.87140	1332.93091	-600.34833	1478.49744	1258.32776	-544.92053	1290.51819	1242.45447	-541.67023	1143.38818	1217.90356	-566.93329	1026.45361	1223.01709	-622.86102	902.53253	1206.20605	-569.71600	896.39850	1191.85095	-608.65186	836.85120	1649.18896	-717.64099	980.56836	1391.63550	-717.68640	973.39264	1567.18994	-506.18091	1022.08203	1453.57788	-501.09192	1021.26160	1683.19031	-630.33228	667.89948	1644.26831	-575.87897	470.43985	1635.51489	-496.98486	290.70346	1587.60229	-475.69611	69.86668	1534.90137	-438.91809	44.57568	1604.32312	-629.81146	29.38061	1303.30347	-700.91168	675.86230	1330.92517	-769.40149	477.20142	1323.54700	-763.71326	290.23419	1351.75842	-789.96240	98.32540	1413.28772	-783.48950	39.11005	1304.40967	-940.46948	68.04241	1468.89465	-672.69525	1791.89783	-3360.26440	2845.18066	1033.97778			 
383	3.820	1541.65186	-782.61810	1708.11401	1403.51733	-747.96442	1682.73206	1582.65625	-643.85046	1665.88721	1447.15747	-598.78912	1642.30371	1523.61121	-549.50366	1522.85620	1520.81555	-487.89972	1241.96655	1524.21729	-683.64435	1443.17651	1516.18591	-729.42871	1271.66882	1467.08667	-479.85266	1344.05884	1695.21545	-630.75848	1496.44189	1793.10852	-664.10748	1307.39429	1818.23132	-712.60333	1174.32043	1820.81567	-788.00146	1062.80371	1770.03101	-889.36060	982.57324	1811.69592	-856.79053	961.92810	1809.40674	-909.16388	921.46991	1332.37988	-606.86407	1477.36450	1257.82910	-551.70831	1289.26086	1242.48364	-547.80408	1142.16565	1218.10425	-572.60834	1025.26880	1223.00769	-628.45758	901.05170	1206.45862	-575.13672	894.98682	1191.90918	-613.84595	835.20703	1648.93103	-724.57654	979.66644	1391.73010	-724.91162	972.40240	1566.49109	-513.12512	1021.32935	1452.82019	-508.34735	1020.36987	1683.00012	-634.79047	667.18091	1643.99622	-579.06146	470.09583	1635.29163	-498.68643	291.01318	1587.46509	-475.87256	70.21222	1534.68359	-439.14145	44.92536	1604.39734	-629.84406	29.32293	1303.86609	-706.81567	674.16870	1332.30981	-777.37708	476.50742	1323.91467	-777.34192	289.44409	1350.93408	-809.79321	98.05201	1412.19568	-804.25623	38.81139	1305.65442	-962.06024	71.82004	1467.38721	-680.17688	1790.78467	-3360.23218	2845.10400	1033.95728			 
384	3.830	1539.87073	-790.17975	1707.02478	1401.88940	-755.07990	1681.42883	1581.36292	-651.49567	1665.12512	1446.10144	-605.99982	1641.32092	1522.81921	-556.79211	1521.90527	1520.24451	-495.13190	1241.05627	1523.20337	-690.89569	1442.25659	1515.46313	-736.68262	1270.69678	1466.97449	-486.61136	1343.18542	1694.30811	-638.40540	1495.80701	1792.20374	-672.12860	1306.67871	1817.16724	-720.87360	1173.72754	1819.74524	-796.52289	1062.69360	1768.65918	-898.35663	982.73792	1810.26697	-865.91888	961.94336	1808.28113	-918.28302	921.82568	1331.58130	-613.32288	1475.99182	1257.64124	-557.80029	1287.97961	1242.21057	-554.04926	1140.73303	1218.00549	-578.71631	1023.49738	1223.01782	-633.83569	899.41901	1206.64319	-580.65448	893.50586	1192.48987	-618.86011	833.31464	1648.60583	-731.77625	978.74677	1391.63550	-732.42212	971.37878	1565.68408	-520.10626	1020.60718	1452.01526	-515.63440	1019.48358	1682.73401	-639.33142	666.50989	1643.71948	-582.43701	469.75891	1634.97644	-500.61118	291.32236	1587.30627	-476.11475	70.62088	1534.49438	-439.06433	45.75011	1604.47632	-629.87018	29.27395	1304.32507	-712.91498	672.59686	1333.83398	-785.17468	475.66125	1324.33142	-790.47534	288.82788	1350.47681	-828.67938	98.18295	1411.51880	-824.08026	38.89051	1306.82434	-982.40240	75.34047	1465.74194	-687.72705	1789.72339	-3360.27905	2845.02832	1034.18127			 
385	3.840	1538.02173	-797.81805	1705.93945	1400.18445	-762.29797	1680.18970	1579.93884	-659.12854	1664.31409	1444.80945	-613.22424	1640.27856	1521.99304	-564.24481	1521.04065	1519.52258	-502.45557	1240.14832	1522.09631	-698.22668	1441.27588	1514.68347	-743.93903	1269.68262	1466.69763	-493.51495	1342.13879	1693.29333	-646.12421	1495.07898	1791.06018	-680.10913	1306.03772	1815.98047	-728.96283	1173.09241	1818.44592	-804.93408	1062.16748	1767.25757	-906.98969	982.72198	1808.71985	-874.49884	961.63672	1806.78882	-927.03735	921.73242	1330.61267	-620.18896	1474.68237	1257.08569	-564.30066	1286.42444	1242.15918	-560.63062	1139.18494	1217.91028	-584.73053	1022.01984	1222.90698	-639.69904	897.81329	1206.73975	-586.31714	891.95514	1192.69104	-624.16217	831.50958	1649.04626	-737.67767	977.52295	1391.52429	-739.93127	970.25879	1564.79565	-527.15308	1019.78387	1451.11719	-522.98737	1018.56433	1682.37732	-643.97974	665.77057	1643.43652	-586.03528	469.42139	1634.62354	-502.63165	291.67007	1587.18335	-476.36871	71.08999	1534.22607	-439.22867	46.24096	1604.56702	-629.90576	29.23762	1304.75549	-719.15009	671.06744	1335.44507	-792.81348	474.62909	1324.83484	-803.17291	288.39767	1350.04041	-846.54315	98.39746	1411.40393	-843.03412	39.08810	1307.88855	-1001.67035	78.64732	1463.98376	-695.24664	1788.63550	-3360.24512	2845.15625	1034.06580			 
386	3.850	1536.07300	-805.42908	1704.91235	1398.39868	-769.48846	1678.91797	1578.45752	-666.76917	1663.53674	1443.53235	-620.45667	1639.31311	1520.94458	-571.64264	1520.06604	1518.73230	-509.82693	1239.16248	1520.93323	-705.53986	1440.32385	1513.83557	-751.32086	1268.73303	1466.67554	-500.79562	1341.03906	1692.20117	-653.85150	1494.48218	1789.67883	-688.10327	1305.13391	1814.67029	-736.85809	1172.30469	1816.90503	-812.91840	1061.44153	1765.77002	-915.15411	982.24207	1807.04626	-882.57294	960.99396	1805.22400	-935.20880	921.30408	1329.33862	-627.23431	1473.18860	1256.64453	-570.77521	1284.96509	1242.22449	-566.77020	1137.78186	1217.71411	-590.67194	1020.56085	1222.79053	-645.43475	895.93005	1206.80066	-592.06934	890.37634	1193.13672	-629.03223	829.52283	1649.22424	-743.78412	976.27209	1391.34192	-747.62543	969.16815	1563.80835	-534.27838	1018.91779	1450.07959	-530.45178	1017.65259	1682.01379	-648.68427	665.14270	1643.03589	-589.85382	469.03067	1634.31396	-504.89563	292.09518	1587.03284	-476.63385	71.63338	1534.01172	-439.55301	46.95008	1604.69788	-629.98047	29.20781	1305.08704	-725.84119	669.64258	1336.67139	-800.28760	473.60275	1325.25098	-815.10480	287.86368	1349.86353	-863.41565	98.73302	1410.45605	-860.99219	39.23821	1308.66406	-1019.45313	81.48225	1462.15552	-702.74591	1787.58948	-3360.40283	2845.19775	1034.07422			 
